<svg
   version="1.1"
   width="68"
   height="68"
   xmlns="http://www.w3.org/2000/svg">
	<path
   stroke="#000000"
   stroke-width="3.06284"
   stroke-miterlimit="4"
   fill="none"
   d="m 47.149721,14.902695 c -0.0758,1.759379 -3.805397,4.59492 -5.913065,4.540444 -4.244285,-0.109699 -6.707821,0.305816 -10.796129,-0.885606 3.20901,0.89352 13.974186,3.042613 19.188005,3.54837 5.213818,0.505757 9.755071,-0.275195 10.222039,2.391986 0.466966,2.667182 -3.202984,4.697006 -6.910207,4.909151 -6.306655,0.360897 -13.61882,-2.215864 -16.511112,-3.468482 2.798824,2.018375 9.257006,3.325963 16.096471,3.973561 6.839464,0.647598 13.635633,-0.157055 13.77917,2.341862 0.202169,3.519668 -4.655706,5.975327 -11.83689,5.924577 -7.303285,-0.05161 -13.48971,-1.192048 -17.722473,-3.060983 2.414116,1.568655 7.928115,2.597325 13.68486,3.197208 5.756743,0.599884 11.71729,0.93071 11.839636,2.762573 0.553383,8.285674 -21.460781,4.122102 -29.561883,1.720819 7.277951,3.140952 21.46866,2.42326 20.853448,5.621943 C 52.946381,52.65142 32.045716,49.298372 24.619207,47.091904 17.192696,44.885438 15.715928,39.057573 8.4986774,43.134941 3.6861784,45.853749 2.8070922,40.92764 2.3720878,38.41017 1.8147383,31.730033 0.60334667,19.582359 3.4308765,13.266595 c 3.1401886,-1.943312 6.4764971,3.514681 9.6992405,3.122202 3.045092,-0.370844 9.265481,-2.630038 16.8862,-3.549885 7.442713,-0.898361 17.209204,0.304404 17.133404,2.063783 z"/>
</svg>
