<svg xmlns="http://www.w3.org/2000/svg" version="1.1" width="68" height="68">
  <path stroke="#000" stroke-width="4" fill="none" d="M 14.298871,54.569479 V 6.9515867 c 0.67243,-3.1830427 2.376624,-4.7752217 5.115223,-4.7752217 2.7386,0 16.102646,0 40.094784,0 4.210279,0 6.314758,1.2761135 6.314758,3.8296595 0,2.5522279 0,4.8463365 0,6.8823235 H 53.804454 c 0,28.227279 0,44.1043 0,47.628429 0,3.525443 -1.9803,5.287513 -5.940898,5.287513 -4.560369,0 -6.840554,-1.49868 -6.840554,-4.493399 0,-2.996036 0,-5.242735 0,-6.741412 H 2.1806013 c 0,3.965305 0,6.799358 0,8.502157 0,2.553544 0,2.732654 6.3504327,2.732654 6.350434,0 36.995531,0 39.332522,0 M 53.850691,14.778156 V 6.7593135 C 54.719962,3.7040139 56.694978,2.176365 59.773094,2.176365 M 21.534427,12.672371 H 46.35224 M 21.534427,20.50816 H 46.35224 M 21.534427,28.343949 H 46.35224 M 21.534427,36.179738 H 46.35224 m -24.817813,7.83579 H 46.35224" />
</svg>