<svg version="1.1" xmlns="http://www.w3.org/2000/svg" width="68" height="68">
	<path stroke="none" fill="#000" d="M 33.399315,0.00377853 C 24.400995,0.04693603 19.696452,4.0128814 16.912799,12.817019 c -1.467353,5.891003 0.453635,13.329678 5.308844,16.933333 -0.05574,4.251017 -4.124265,3.225523 -9.579009,7.886798 -6.277425,5.364283 -9.7988859,22.3745 -6.195242,30.056541 13.10757,0.759175 40.169169,-0.108498 55.481231,-0.298275 3.702452,-5.633813 1.341854,-24.019827 -7.093137,-29.769781 -2.311731,-1.575858 -9.625166,-4.417648 -7.618347,-7.827094 2.675759,-2.589452 4.823082,-6.219717 5.254657,-10.060738 C 54.552015,8.8744027 46.962724,-0.21237201 33.399315,0.00377853 Z M 47.149882,10.971599 c 7.298253,7.490928 -0.05766,20.799222 -12.13642,20.586917 -14.039866,0.184262 -18.304017,-14.064924 -14.912145,-18.264345 5.86546,-5.8654769 8.480956,9.344699 27.048565,-2.322572 z m -3.193937,20.98869 c -2.509492,3.560225 -4.958912,7.425958 -9.816473,7.642464 -5.706681,-1.576079 -6.794778,-5.354633 -9.014481,-8.439911 6.449086,3.719799 8.873296,4.805501 18.830954,0.797447 z m -19.8885,3.148565 c 4.36993,4.868867 5.024354,5.155237 9.9593,7.428611 5.337184,-1.82227 6.296699,-1.829381 11.127742,-7.494897 3.431014,3.754706 18.061057,3.780572 15.706,29.82506 -3.312731,0.719725 -9.276692,0.0514 -12.750864,0.04374 -0.901213,-4.515757 -0.622448,-7.683792 -1.479753,-13.826503 -0.258945,3.107343 -0.650055,13.609278 -0.650055,13.609278 -4.290683,0.168444 -18.202318,0.0028 -23.363916,-0.321109 0.129472,-2.63261 -0.32547,-7.129043 -0.691552,-13.378631 0.101355,3.440864 -0.837797,9.200541 -1.928866,13.272478 C 16.330775,65.581356 10.326028,63.941385 7.737146,63.852364 6.215831,37.129671 22.756217,35.284751 24.067445,35.108854 Z" />
</svg>