<?xml version="1.0" encoding="UTF-8"?>
<!DOCTYPE svg PUBLIC "-//W3C//DTD SVG 1.1//EN" "http://www.w3.org/Graphics/SVG/1.1/DTD/svg11.dtd">
<svg version="1.1" xmlns="http://www.w3.org/2000/svg" xmlns:xlink="http://www.w3.org/1999/xlink" width="616" height="652"  xml:space="preserve" id="canvas1">
	<!-- Generated by PaintCode - http://www.paintcodeapp.com -->
	<path id="canvas1-bezier" stroke="rgb(0, 0, 0)" stroke-width="33" stroke-miterlimit="10" fill="none" d="M 145.23,451.34 L 145.23,89.76 C 150.32,65.59 163.22,53.5 183.95,53.5 204.68,53.5 305.84,53.5 487.45,53.5 519.32,53.5 535.25,63.19 535.25,82.58 535.25,101.96 535.25,119.38 535.25,134.84 L 444.27,134.84 C 444.27,349.18 444.27,469.74 444.27,496.5 444.27,523.27 429.28,536.65 399.3,536.65 364.78,536.65 347.52,525.27 347.52,502.53 347.52,479.78 347.52,462.72 347.52,451.34 L 53.5,451.34 C 53.5,481.45 53.5,502.97 53.5,515.9 53.5,535.29 53.5,536.65 101.57,536.65 149.64,536.65 381.61,536.65 399.3,536.65 M 444.62,149.19 L 444.62,88.3 C 451.2,65.1 466.15,53.5 489.45,53.5 M 200,133.2 L 387.86,133.2 M 200,192.7 L 387.86,192.7 M 200,252.2 L 387.86,252.2 M 200,311.7 L 387.86,311.7 M 200,371.2 L 387.86,371.2" />
</svg>
