<?xml version="1.0" encoding="UTF-8"?>
<!DOCTYPE svg PUBLIC "-//W3C//DTD SVG 1.1//EN" "http://www.w3.org/Graphics/SVG/1.1/DTD/svg11.dtd">
<svg version="1.1" xmlns="http://www.w3.org/2000/svg" xmlns:xlink="http://www.w3.org/1999/xlink" width="1288" height="1403"  xml:space="preserve" id="humanCanvas">
	<!-- Generated by PaintCode - http://www.paintcodeapp.com -->
	<path id="humanCanvas-path1" stroke="none" fill="rgb(0, 0, 0)" d="M 623.3,325.62 C 525.36,326.12 421.84,384.22 391.54,481.24 375.43,546.22 404.61,617.75 457.46,657.49 472.16,704.38 410.52,714.63 386.06,740.39 320.92,803.09 289.7,906.98 328.96,991.58 365.94,1052.74 444.56,1063.08 509.82,1063.01 607.11,1062.89 704.54,1062.87 801.72,1059.06 859.27,1053.8 926.05,1028.6 944.65,968.22 973.16,881.46 933.27,783.19 863.93,727.62 837.91,711.84 786.86,689.44 808.83,651.76 837.91,623.23 865.39,589.45 870.01,547.3 882.73,480.23 847.27,410.82 790.48,375.05 742.23,340.62 682.22,324.62 623.3,325.62 Z M 639.61,481.67 C 701.03,483.37 771.16,494.15 811.07,546.13 831.9,589.31 793.06,636.14 751.84,647.32 662.52,685.04 552.34,684.21 470.13,629.58 439.16,604.22 439.59,547.79 476.58,528.22 522.61,492.28 582.96,483.98 639.61,481.67 Z M 679.82,742.3 C 730.58,745.85 681.9,810.62 649.8,795.28 625.55,803.94 572.81,775.65 598.02,750.05 623.65,737.25 653.35,751.91 679.82,742.3 Z M 445.74,743.63 C 497.47,753.56 514.04,819.09 566.51,827.53 624.79,848.29 693.13,839.15 743.26,802.64 762.43,769.71 810.17,725.46 845.85,762.72 883.24,804.05 896.3,861.47 903.89,915.28 906.37,947.33 901.39,992.67 863.39,1000.84 824.31,1014.25 789.02,976.25 808.11,939.22 815.82,902.77 764.06,860.83 749.88,910.6 746.91,944.9 750,1001 750,1001 705.47,1013.38 511.74,1027.16 510,989 511.5,959.92 524.1,879.63 475.65,887.47 436.26,907.22 470.19,958.16 450.41,988.86 414.75,1024.65 347.91,984.5 355.26,936.74 357.85,881.68 372.72,826.06 401.16,778.68 411.93,763.58 426.38,746.35 445.74,743.63 Z M 445.74,743.63" />
</svg>
