<?xml version="1.0" encoding="UTF-8"?>
<!DOCTYPE svg PUBLIC "-//W3C//DTD SVG 1.1//EN" "http://www.w3.org/Graphics/SVG/1.1/DTD/svg11.dtd">
<svg version="1.1" xmlns="http://www.w3.org/2000/svg" xmlns:xlink="http://www.w3.org/1999/xlink" width="183" height="135"  xml:space="preserve" id="adhocSubProcess">
	<!-- Generated by PaintCode - http://www.paintcodeapp.com -->
	<path id="adhocSubProcess-adhocSubProcesspath1" stroke="rgb(0, 0, 0)" stroke-width="5" stroke-miterlimit="4" fill="none" d="M 82.5,19.53 C 87.16,22.36 72.41,32 73,36.62 71.87,42.85 77.17,45.28 83.59,48.1 92.58,51.07 101.85,52.5 111.7,51.55 117.45,52.85 114.95,59.36 109.75,58.23 96.34,59.76 82.51,57.09 70.69,50.48 66.1,46.02 62.97,55.23 68.98,56 81.31,64.83 97.28,67.59 111.96,64.31 118.33,66.27 109.09,72.04 105.68,72.62 91.66,75 81.32,73.88 69.11,68.25 65.46,63.58 61.32,70.24 66.12,72.49 70.37,76.7 76.49,78.22 82.41,79.4 87.66,80.45 92.77,80.69 96.58,80.17 100.13,79.69 109.06,76.6 110.37,79.62 108.63,87.47 98.92,87.44 93.14,87.84 82.42,88.59 73.24,85.57 63.17,83.56 57.68,87.47 67.69,92.27 71.7,92.65 75.49,93.31 85.16,92.75 80.43,98.79 66.53,100.8 51.46,96.57 41.81,85.97 38.87,80.45 32.74,79.89 27.68,82.73 20.13,86.45 20.84,75.27 20.2,70.71 19.38,58.61 20.41,46.21 24.57,34.77 29.19,31.25 34.21,38.55 38.84,39.79 44.76,40.54 48.43,34.32 53.48,32.17 60.63,28 74.29,20.77 82.5,19.53 Z M 82.5,19.53" />
</svg>
