<?xml version="1.0" encoding="UTF-8"?>
<!DOCTYPE svg PUBLIC "-//W3C//DTD SVG 1.1//EN" "http://www.w3.org/Graphics/SVG/1.1/DTD/svg11.dtd">
<svg version="1.1" xmlns="http://www.w3.org/2000/svg" xmlns:xlink="http://www.w3.org/1999/xlink" width="432" height="340"  xml:space="preserve" id="adhocSubProcess">
	<!-- Generated by PaintCode - http://www.paintcodeapp.com -->
	<rect id="adhocSubProcess-rectangle2" stroke="none" fill="rgb(255, 255, 255)" x="150" y="148" width="14" height="11" />
	<g id="adhocSubProcess-group2">
		<circle id="adhocSubProcess-oval2" stroke="rgb(0, 0, 0)" stroke-width="15" stroke-miterlimit="10" fill="rgb(255, 255, 255)" cx="127.22" cy="119.53" r="72.69" />
		<rect id="adhocSubProcess-rectangle4" stroke="none" fill="rgb(0, 0, 0)" x="-19.25" y="-17.45" width="38.5" height="34.9"  transform="translate(188.3, 54.39) rotate(-45)" />
		<rect id="adhocSubProcess-rectangle11" stroke="none" fill="rgb(0, 0, 0)" x="109.76" y="186.78" width="34.91" height="38.5" />
		<rect id="adhocSubProcess-rectangle12" stroke="none" fill="rgb(0, 0, 0)" x="-19.25" y="-17.45" width="38.5" height="34.9"  transform="translate(64.25, 180.04) rotate(-45)" />
		<rect id="adhocSubProcess-rectangle13" stroke="none" fill="rgb(0, 0, 0)" x="-17.45" y="-19.25" width="34.9" height="38.5"  transform="translate(64.25, 54.24) rotate(-45)" />
		<rect id="adhocSubProcess-rectangle14" stroke="none" fill="rgb(0, 0, 0)" x="109.76" y="103.19" width="33.91" height="33.5" />
		<rect id="adhocSubProcess-rectangle15" stroke="none" fill="rgb(0, 0, 0)" x="19.05" y="104.94" width="38.5" height="34.9" />
		<rect id="adhocSubProcess-rectangle16" stroke="none" fill="rgb(0, 0, 0)" x="-19.25" y="-17.45" width="38.5" height="34.9"  transform="translate(188.05, 179.79) rotate(45)" />
		<rect id="adhocSubProcess-rectangle17" stroke="none" fill="rgb(0, 0, 0)" x="193.3" y="106.59" width="38.5" height="34.9" />
		<rect id="adhocSubProcess-rectangle18" stroke="none" fill="rgb(0, 0, 0)" x="108.76" y="13.19" width="34.91" height="38.5" />
	</g>
	<g id="adhocSubProcess-group">
		<circle id="adhocSubProcess-oval" stroke="rgb(0, 0, 0)" stroke-width="15" stroke-miterlimit="10" fill="rgb(255, 255, 255)" cx="198.22" cy="193.53" r="72.69" />
		<rect id="adhocSubProcess-rectangle3" stroke="none" fill="rgb(0, 0, 0)" x="-19.25" y="-17.45" width="38.5" height="34.9"  transform="translate(259.3, 128.39) rotate(-45)" />
		<rect id="adhocSubProcess-rectangle" stroke="none" fill="rgb(0, 0, 0)" x="180.76" y="260.78" width="34.91" height="38.5" />
		<rect id="adhocSubProcess-rectangle5" stroke="none" fill="rgb(0, 0, 0)" x="-19.25" y="-17.45" width="38.5" height="34.9"  transform="translate(135.25, 254.04) rotate(-45)" />
		<rect id="adhocSubProcess-rectangle9" stroke="none" fill="rgb(0, 0, 0)" x="-17.45" y="-19.25" width="34.9" height="38.5"  transform="translate(135.25, 128.24) rotate(-45)" />
		<rect id="adhocSubProcess-rectangle10" stroke="none" fill="rgb(0, 0, 0)" x="180.76" y="177.19" width="33.91" height="33.5" />
		<rect id="adhocSubProcess-rectangle7" stroke="none" fill="rgb(0, 0, 0)" x="90.05" y="178.94" width="38.5" height="34.9" />
		<rect id="adhocSubProcess-rectangle8" stroke="none" fill="rgb(0, 0, 0)" x="-19.25" y="-17.45" width="38.5" height="34.9"  transform="translate(259.05, 253.79) rotate(45)" />
		<rect id="adhocSubProcess-rectangle6" stroke="none" fill="rgb(0, 0, 0)" x="264.3" y="180.59" width="38.5" height="34.9" />
		<rect id="adhocSubProcess-rectangle19" stroke="none" fill="rgb(0, 0, 0)" x="179.76" y="87.19" width="34.91" height="38.5" />
	</g>
</svg>
