<?xml version="1.0" encoding="UTF-8"?>
<!DOCTYPE svg PUBLIC "-//W3C//DTD SVG 1.1//EN" "http://www.w3.org/Graphics/SVG/1.1/DTD/svg11.dtd">
<svg version="1.1" xmlns="http://www.w3.org/2000/svg" xmlns:xlink="http://www.w3.org/1999/xlink" width="39" height="33"  xml:space="preserve" id="adhocSubProcess">
	<!-- Generated by PaintCode - http://www.paintcodeapp.com -->
	<path id="adhocSubProcess-path1" stroke="none" fill="rgb(0, 0, 0)" d="M 19.93,1 C 15.76,1.02 11.35,3.47 10.06,7.55 9.38,10.28 10.62,13.29 12.87,14.96 13.5,16.93 10.87,17.36 9.83,18.44 7.06,21.08 5.73,25.45 7.4,29.01 8.98,31.58 12.32,32.01 15.1,32.01 19.24,32.01 23.39,32.01 27.52,31.84 29.97,31.62 32.81,30.56 33.6,28.02 34.82,24.38 33.12,20.24 30.17,17.91 29.06,17.24 26.89,16.3 27.82,14.72 29.06,13.52 30.23,12.1 30.43,10.32 30.97,7.5 29.46,4.58 27.04,3.08 24.99,1.63 22.44,0.96 19.93,1 Z M 20.62,7.56 C 23.24,7.64 26.22,8.09 27.92,10.28 28.81,12.09 27.15,14.06 25.4,14.53 21.6,16.12 16.91,16.08 13.41,13.78 12.09,12.72 12.11,10.34 13.68,9.52 15.64,8.01 18.21,7.66 20.62,7.56 Z M 22.33,18.52 C 24.49,18.67 22.42,21.4 21.06,20.75 20.02,21.12 17.78,19.93 18.85,18.85 19.94,18.31 21.21,18.93 22.33,18.52 Z M 12.37,18.58 C 14.57,19 15.28,21.75 17.51,22.11 19.99,22.98 22.9,22.6 25.03,21.06 25.85,19.68 27.88,17.82 29.4,19.38 30.99,21.12 31.55,23.54 31.87,25.8 31.97,27.15 31.76,29.05 30.15,29.4 28.48,29.96 26.98,28.36 27.79,26.81 28.12,25.27 25.92,23.51 25.31,25.6 25.19,27.04 25.32,29.4 25.32,29.4 23.42,29.92 15.18,30.5 15.11,28.9 15.17,27.68 15.71,24.3 13.64,24.63 11.97,25.46 13.41,27.6 12.57,28.89 11.05,30.4 8.21,28.71 8.52,26.7 8.63,24.39 9.26,22.05 10.47,20.05 10.93,19.42 11.55,18.69 12.37,18.58 Z M 12.37,18.58" />
</svg>
