<?xml version="1.0" encoding="UTF-8"?>
<!DOCTYPE svg PUBLIC "-//W3C//DTD SVG 1.1//EN" "http://www.w3.org/Graphics/SVG/1.1/DTD/svg11.dtd">
<svg version="1.1" xmlns="http://www.w3.org/2000/svg" xmlns:xlink="http://www.w3.org/1999/xlink" width="240" height="120"  xml:space="preserve" id="canvas1">
	<!-- Generated by PaintCode - http://www.paintcodeapp.com -->
	<path id="canvas1-path" fill-rule="evenodd" class="stroke" stroke="rgb(83, 83, 88)" stroke-width="2" stroke-linejoin="round" stroke-miterlimit="4" fill="none" d="M 80.91,36.38 C 80.96,36.16 81.16,36 81.39,36 L 84.61,36 C 84.84,36 85.04,36.16 85.09,36.38 L 85.78,39.14 C 85.83,39.31 85.96,39.44 86.12,39.5 86.51,39.62 86.88,39.77 87.24,39.94 87.38,40.01 87.55,40.01 87.69,39.94 L 90.46,38.56 C 90.65,38.46 90.88,38.5 91.03,38.65 L 93.35,40.97 C 93.5,41.12 93.54,41.35 93.44,41.54 L 92.06,44.31 C 91.99,44.45 91.99,44.62 92.06,44.76 92.19,45.03 92.3,45.31 92.41,45.59 92.46,45.74 92.58,45.86 92.72,45.91 L 95.66,46.89 C 95.86,46.95 96,47.14 96,47.36 L 96,50.64 C 96,50.86 95.86,51.05 95.66,51.11 L 92.72,52.09 C 92.57,52.14 92.46,52.26 92.4,52.41 92.3,52.69 92.19,52.97 92.06,53.24 91.99,53.38 91.99,53.55 92.06,53.69 L 93.44,56.46 C 93.54,56.65 93.5,56.88 93.35,57.03 L 91.03,59.35 C 90.88,59.5 90.65,59.54 90.46,59.44 L 87.69,58.06 C 87.55,57.99 87.38,57.99 87.24,58.06 86.97,58.19 86.69,58.3 86.41,58.41 86.26,58.46 86.14,58.58 86.09,58.72 L 85.11,61.66 C 85.05,61.86 84.86,62 84.64,62 L 81.36,62 C 81.14,62 80.95,61.86 80.89,61.66 L 79.91,58.72 C 79.86,58.57 79.74,58.46 79.59,58.4 79.22,58.27 78.85,58.11 78.49,57.93 78.33,57.85 78.15,57.85 77.99,57.94 L 75.56,59.41 C 75.36,59.52 75.11,59.49 74.95,59.33 L 72.67,57.05 C 72.51,56.89 72.48,56.64 72.59,56.44 L 74.06,54.01 C 74.15,53.85 74.15,53.67 74.07,53.51 73.85,53.06 73.65,52.6 73.5,52.12 73.44,51.96 73.31,51.83 73.14,51.78 L 70.38,51.09 C 70.16,51.04 70,50.84 70,50.61 L 70,47.39 C 70,47.16 70.16,46.96 70.38,46.91 L 73.14,46.22 C 73.31,46.17 73.44,46.04 73.5,45.88 73.66,45.4 73.85,44.94 74.07,44.49 74.15,44.33 74.15,44.15 74.06,43.99 L 72.59,41.56 C 72.48,41.36 72.51,41.11 72.67,40.95 L 74.95,38.67 C 75.11,38.51 75.36,38.48 75.56,38.59 L 77.99,40.06 C 78.15,40.15 78.33,40.15 78.49,40.07 78.94,39.85 79.4,39.65 79.87,39.5 80.04,39.44 80.17,39.31 80.22,39.14 L 80.91,36.38 80.91,36.38 Z M 80.91,36.38" />
	<circle id="canvas1-oval2" class="stroke" stroke="rgb(83, 83, 88)" stroke-width="2" stroke-miterlimit="10" fill="none" cx="83" cy="49" r="5" />
	<path id="canvas1-path2" fill-rule="evenodd" class="stroke" stroke="rgb(83, 83, 88)" stroke-width="2" stroke-linejoin="round" stroke-miterlimit="4" fill="none" d="M -1.45,-8.74 C -1.41,-8.89 -1.27,-9 -1.11,-9 L 1.11,-9 C 1.27,-9 1.41,-8.89 1.45,-8.74 L 1.93,-6.83 C 1.96,-6.71 2.05,-6.62 2.16,-6.58 2.43,-6.49 2.69,-6.39 2.94,-6.27 3.03,-6.22 3.15,-6.23 3.25,-6.27 L 5.16,-7.23 C 5.29,-7.3 5.46,-7.27 5.56,-7.17 L 7.17,-5.56 C 7.27,-5.46 7.3,-5.29 7.23,-5.16 L 6.27,-3.25 C 6.23,-3.15 6.22,-3.03 6.27,-2.94 6.36,-2.75 6.44,-2.56 6.51,-2.36 6.55,-2.26 6.63,-2.18 6.73,-2.14 L 8.76,-1.46 C 8.9,-1.42 9,-1.28 9,-1.14 L 9,1.14 C 9,1.28 8.9,1.42 8.76,1.46 L 6.73,2.14 C 6.63,2.18 6.55,2.26 6.51,2.36 6.44,2.55 6.36,2.75 6.27,2.94 6.22,3.03 6.23,3.15 6.27,3.25 L 7.23,5.16 C 7.3,5.29 7.27,5.46 7.17,5.56 L 5.56,7.17 C 5.46,7.27 5.29,7.3 5.16,7.23 L 3.25,6.27 C 3.15,6.23 3.03,6.22 2.94,6.27 2.75,6.36 2.56,6.44 2.36,6.51 2.26,6.55 2.18,6.63 2.14,6.73 L 1.46,8.76 C 1.42,8.9 1.28,9 1.14,9 L -1.14,9 C -1.28,9 -1.42,8.9 -1.46,8.76 L -2.14,6.73 C -2.18,6.63 -2.26,6.55 -2.36,6.51 -2.62,6.42 -2.87,6.31 -3.12,6.18 -3.23,6.13 -3.36,6.13 -3.47,6.19 L -5.15,7.2 C -5.29,7.29 -5.46,7.26 -5.58,7.15 L -7.15,5.58 C -7.26,5.46 -7.29,5.29 -7.2,5.15 L -6.19,3.47 C -6.13,3.36 -6.13,3.23 -6.18,3.12 -6.34,2.81 -6.47,2.49 -6.58,2.16 -6.62,2.05 -6.71,1.96 -6.83,1.93 L -8.74,1.45 C -8.89,1.41 -9,1.27 -9,1.11 L -9,-1.11 C -9,-1.27 -8.89,-1.41 -8.74,-1.45 L -6.83,-1.93 C -6.71,-1.96 -6.62,-2.05 -6.58,-2.16 -6.47,-2.49 -6.34,-2.81 -6.18,-3.12 -6.13,-3.23 -6.13,-3.36 -6.19,-3.47 L -7.2,-5.15 C -7.29,-5.29 -7.26,-5.46 -7.15,-5.58 L -5.58,-7.15 C -5.46,-7.26 -5.29,-7.29 -5.15,-7.2 L -3.47,-6.19 C -3.36,-6.13 -3.23,-6.13 -3.12,-6.18 -2.81,-6.34 -2.49,-6.47 -2.16,-6.58 -2.05,-6.62 -1.96,-6.71 -1.93,-6.83 L -1.45,-8.74 -1.45,-8.74 Z M -1.45,-8.74" transform="translate(92, 31) rotate(35.11)"  />
	<circle id="canvas1-oval" class="stroke" stroke="rgb(83, 83, 88)" stroke-width="2" stroke-miterlimit="10" fill="none" cx="92" cy="31" r="3" />
</svg>
