<?xml version="1.0"?>
<svg xmlns="http://www.w3.org/2000/svg" xmlns:xlink="http://www.w3.org/1999/xlink" width="43.6441585px" height="54.3931974px" viewBox="0 0 43.6441585 54.3931974" version="1.1">
	<path class="stroke" stroke="#000" stroke-width="1" fill="none" d="M13.0080769,21.4530769 C13.0676923,21.1907692 13.3061538,21 13.5803846,21 L17.4196154,21 C17.6938462,21 17.9323077,21.1907692 17.9919231,21.4530769 L18.8146154,24.7438462 C18.8742308,24.9465385 19.0292308,25.1015385 19.22,25.1730769 C19.685,25.3161538 20.1261538,25.495 20.5553846,25.6976923 C20.7223077,25.7811538 20.925,25.7811538 21.0919231,25.6976923 L24.3946154,24.0523077 C24.6211538,23.9330769 24.8953846,23.9807692 25.0742308,24.1596154 L27.8403846,26.9257692 C28.0192308,27.1046154 28.0669231,27.3788462 27.9476923,27.6053846 L26.3023077,30.9080769 C26.2188462,31.075 26.2188462,31.2776923 26.3023077,31.4446154 C26.4573077,31.7665385 26.5884615,32.1003846 26.7196154,32.4342308 C26.7792308,32.6130769 26.9223077,32.7561538 27.0892308,32.8157692 L30.5946154,33.9842308 C30.8330769,34.0557692 31,34.2823077 31,34.5446154 L31,38.4553846 C31,38.7176923 30.8330769,38.9442308 30.5946154,39.0157692 L27.0892308,40.1842308 C26.9103846,40.2438462 26.7792308,40.3869231 26.7076923,40.5657692 C26.5884615,40.8996154 26.4573077,41.2334615 26.3023077,41.5553846 C26.2188462,41.7223077 26.2188462,41.925 26.3023077,42.0919231 L27.9476923,45.3946154 C28.0669231,45.6211538 28.0192308,45.8953846 27.8403846,46.0742308 L25.0742308,48.8403846 C24.8953846,49.0192308 24.6211538,49.0669231 24.3946154,48.9476923 L21.0919231,47.3023077 C20.925,47.2188462 20.7223077,47.2188462 20.5553846,47.3023077 C20.2334615,47.4573077 19.8996154,47.5884615 19.5657692,47.7196154 C19.3869231,47.7792308 19.2438462,47.9223077 19.1842308,48.0892308 L18.0157692,51.5946154 C17.9442308,51.8330769 17.7176923,52 17.4553846,52 L13.5446154,52 C13.2823077,52 13.0557692,51.8330769 12.9842308,51.5946154 L11.8157692,48.0892308 C11.7561538,47.9103846 11.6130769,47.7792308 11.4342308,47.7076923 C10.9930769,47.5526923 10.5519231,47.3619231 10.1226923,47.1473077 C9.93192308,47.0519231 9.71730769,47.0519231 9.52653846,47.1592308 L6.62923077,48.9119231 C6.39076923,49.0430769 6.09269231,49.0073077 5.90192308,48.8165385 L3.18346154,46.0980769 C2.99269231,45.9073077 2.95692308,45.6092308 3.08807692,45.3707692 L4.84076923,42.4734615 C4.94807692,42.2826923 4.94807692,42.0680769 4.85269231,41.8773077 C4.59038462,41.3407692 4.35192308,40.7923077 4.17307692,40.22 C4.10153846,40.0292308 3.94653846,39.8742308 3.74384615,39.8146154 L0.453076923,38.9919231 C0.190769231,38.9323077 0,38.6938462 0,38.4196154 L0,34.5803846 C0,34.3061538 0.190769231,34.0676923 0.453076923,34.0080769 L3.74384615,33.1853846 C3.94653846,33.1257692 4.10153846,32.9707692 4.17307692,32.78 C4.36384615,32.2076923 4.59038462,31.6592308 4.85269231,31.1226923 C4.94807692,30.9319231 4.94807692,30.7173077 4.84076923,30.5265385 L3.08807692,27.6292308 C2.95692308,27.3907692 2.99269231,27.0926923 3.18346154,26.9019231 L5.90192308,24.1834615 C6.09269231,23.9926923 6.39076923,23.9569231 6.62923077,24.0880769 L9.52653846,25.8407692 C9.71730769,25.9480769 9.93192308,25.9480769 10.1226923,25.8526923 C10.6592308,25.5903846 11.2076923,25.3519231 11.7680769,25.1730769 C11.9707692,25.1015385 12.1257692,24.9465385  12.1853846,24.7438462 L13.0080769,21.4530769 L13.0080769,21.4530769 Z"/>
	<circle class="stroke" stroke="#000" stroke-width="1" fill="none" cx="16" cy="36" r="6"/>
	<path class="stroke" stroke="#000" stroke-width="1" fill="none" d="M24.5436387,4.53702176 C24.5914122,4.35787111 24.7586195,4.22649397 24.9497135,4.22649397 L27.6011431,4.22649397 C27.7922371,4.22649397 27.9594444,4.35787111 28.0072179,4.53702176 L28.5805,6.81820667 C28.6163301,6.96152719 28.7238205,7.06901758 28.8551976,7.11679108 C29.1776688,7.22428147 29.4881966,7.34371524 29.786781,7.48703576 C29.8942714,7.54675264 30.0375919,7.53480926 30.1570257,7.48703576 L32.4382106,6.34047161 C32.5934745,6.25686798 32.7965119,6.29269811 32.9159457,6.41213187 L34.8388293,8.33501549 C34.958263,8.45444925 34.9940932,8.65748665 34.9104895,8.81275055 L33.7639254,11.0939355 C33.7161519,11.2133692 33.7042085,11.3566897 33.7639254,11.4641801 C33.8714158,11.6911043 33.9669628,11.9180284 34.0505664,12.156896 C34.0983399,12.2763297 34.1938869,12.3718767 34.3133207,12.4196503 L36.7378261,13.2317999 C36.9050334,13.2795734 37.0244672,13.4467806 37.0244672,13.6139879 L37.0244672,16.3370777 C37.0244672,16.504285 36.9050334,16.6714923 36.7378261,16.7192658 L34.3133207,17.5314154 C34.1938869,17.5791889 34.0983399,17.6747359 34.0505664,17.7941697 C33.9669628,18.0210938 33.8714158,18.2599614 33.7639254,18.4868855 C33.7042085,18.5943759 33.7161519,18.7376964 33.7639254,18.8571302 L34.9104895,21.1383151 C34.9940932,21.293579 34.958263,21.4966164 34.8388293,21.6160502 L32.9159457,23.5389338 C32.7965119,23.6583675 32.5934745,23.6941977 32.4382106,23.610594 L30.1570257,22.4640299 C30.0375919,22.4162564 29.8942714,22.404313 29.786781,22.4640299 C29.5598569,22.5715203 29.3329327,22.6670673 29.0940652,22.7506709 C28.9746314,22.7984444 28.8790844,22.8939915 28.8313109,23.0134252 L28.0191613,25.4379306 C27.9713878,25.6051379 27.8041805,25.7245717 27.6369732,25.7245717 L24.9138834,25.7245717 C24.7466761,25.7245717 24.5794689,25.6051379 24.5316953,25.4379306 L23.7195457,23.0134252 C23.6717722,22.8939915 23.5762252,22.7984444 23.4567915,22.7506709 C23.1462637,22.6431805 22.8476793,22.5118034 22.5490948,22.3565395 C22.4177177,22.2968226 22.2624538,22.2968226 22.1310767,22.3684829 L20.1245894,23.5747639 C19.9573821,23.6822543 19.7543447,23.6464242 19.6110242,23.515047 L17.7359141,21.6399369 C17.604537,21.4966164 17.5687068,21.293579 17.6761972,21.1263717 L18.8824783,19.1198845 C18.9541385,18.9885073 18.9541385,18.8332434 18.8944216,18.7018663 C18.7033276,18.3316216 18.5480637,17.9494336 18.4166866,17.5553022 C18.3689131,17.423925 18.2614227,17.3164346 18.1181022,17.2806045 L15.8369172,16.7073224 C15.6577666,16.6595489 15.5263895,16.4923416 15.5263895,16.3012476 L15.5263895,13.649818 C15.5263895,13.458724 15.6577666,13.2915167 15.8369172,13.2437432 L18.1181022,12.6704612 C18.2614227,12.634631 18.3689131,12.5271406 18.4166866,12.3957635 C18.5480637,12.0016321 18.7033276,11.619444 18.8944216,11.2491994 C18.9541385,11.1178222 18.9541385,10.9625583 18.8824783,10.8311812 L17.6761972,8.82469392 C17.5687068,8.65748665 17.604537,8.45444925 17.7359141,8.31112874 L19.6110242,6.43601862 C19.7543447,6.30464148 19.9573821,6.26881135 20.1245894,6.37630174 L22.1310767,7.58258277 C22.2624538,7.65424303 22.4177177,7.65424303 22.5490948,7.59452614 C22.9193395,7.40343212 23.3015276,7.24816823 23.695659,7.11679108 C23.8270361,7.06901758 23.9345265,6.96152719 23.9703567,6.81820667 L24.5436387,4.53702176 L24.5436387,4.53702176 Z" transform="translate(26.2754, 14.9755) rotate(35.11) translate(-26.2754, -14.9755)"/>
	<circle class="stroke" stroke="#000" stroke-width="1" fill="none" cx="26.5" cy="14.5" r="3.5" />
</svg>
