<?xml version="1.0"?>
<svg xmlns="http://www.w3.org/2000/svg" xmlns:xlink="http://www.w3.org/1999/xlink" width="38.0217034px" height="25.9981755px" viewBox="0 0 38.0217034 25.9981755" version="1.1">
	<path class="stroke" stroke="#000" stroke-width="1" fill="none" d="M15.1233519,16.2827295 C15.9446831,15.2122728 16.2077657,17.0094616 16.862264,17.3040827 C18.0012194,17.8573157 19.0278833,16.9112545 19.9679225,16.308918 C20.9175867,16.6264541 21.0844196,18.5775006 22.4447493,18.1453897 C23.9494537,18.2697853 25.5151162,17.4939496 26.9684874,18.1781253 C27.9406099,19.2453085 29.2207315,19.1110922 30.3917701,18.6822548 C31.4986422,18.8950367 31.5948919,17.3499127 32.1499321,16.8359625 C33.3305957,16.8326889 34.22251,15.6247423 33.4396787,14.3120416 C32.5541811,12.6130598 34.4150095,11.6277158 34.8513417,10.2462701 C35.3390071,8.62912756 34.5305092,6.98907001 33.8182611,5.66327498 C34.5369258,4.42913985 33.718803,2.92329858 32.7434722,2.34060348 C32.1338905,2.35369775 28.1266927,0.386283401 26.3974056,0.366641993 C25.1237006,0.448481193 24.3312444,2.66796028 22.9709146,1.5614943 C21.5239601,0.811847238 19.8299645,0.680904519 18.3316768,1.27014675 C17.8664697,2.00342598 16.9360555,2.57630038 16.7307227,1.23413751 C15.8741,0.497584712 14.5586868,0.959157797 13.5159812,0.860950758 C12.7748581,0.720187335 11.6840277,2.10490659 11.3888618,0.713640199 C10.9781962,-0.860945998 9.021118,0.487764008 8.88957668,1.70880486 C8.91203495,2.88728933 8.64574399,3.83662405 8.20620348,4.88089223 C7.84045444,5.91206614 9.05640957,6.78610879 8.46286947,7.73216994 C7.73778804,9.60465082 7.85007941,11.8961484 8.90240998,13.5656681 C9.5633249,14.331683 14.2218126,17.3630069 15.1233519,16.2827295 Z" />
	<circle class="stroke" stroke="#000" stroke-width="1" fill="none" cx="1.5" cy="21.5" r="1.5"/>
	<ellipse class="stroke" stroke="#000" stroke-width="1" fill="none" cx="6" cy="17.5" rx="3" ry="2.5"/>
</svg>
