<?xml version="1.0" encoding="UTF-8"?>
<!DOCTYPE svg PUBLIC "-//W3C//DTD SVG 1.1//EN" "http://www.w3.org/Graphics/SVG/1.1/DTD/svg11.dtd">
<svg version="1.1" xmlns="http://www.w3.org/2000/svg" xmlns:xlink="http://www.w3.org/1999/xlink" width="240" height="120"  xml:space="preserve" id="canvas1">
	<!-- Generated by PaintCode - http://www.paintcodeapp.com -->
	<path id="canvas1-cloudCanvasarriereplanCanvasbezier4" class="stroke" stroke="rgb(0, 0, 0)" stroke-width="3" stroke-miterlimit="4" fill="none" d="M 81.05,66.7 C 83.61,63.43 84.43,68.92 86.47,69.82 90.02,71.51 93.22,68.62 96.15,66.78 99.11,67.75 99.63,73.71 103.87,72.39 108.56,72.77 113.44,70.4 117.97,72.49 121,75.75 124.99,75.34 128.64,74.03 132.09,74.68 132.39,69.96 134.12,68.39 137.8,68.38 140.58,64.69 138.14,60.68 135.38,55.49 141.18,52.48 142.54,48.26 144.06,43.32 141.54,38.31 139.32,34.26 141.56,30.49 139.01,25.89 135.97,24.11 134.07,24.15 121.58,18.14 116.19,18.08 112.22,18.33 109.75,25.11 105.51,21.73 101,19.44 95.72,19.04 91.05,20.84 89.6,23.08 86.7,24.83 86.06,20.73 83.39,18.48 79.29,19.89 76.04,19.59 73.73,19.16 70.33,23.39 69.41,19.14 68.13,14.33 62.03,18.45 61.62,22.18 61.69,25.78 60.86,28.68 59.49,31.87 58.35,35.02 62.14,37.69 60.29,40.58 58.03,46.3 58.38,53.3 61.66,58.4 63.72,60.74 78.24,70 81.05,66.7 Z M 81.05,66.7" />
	<circle id="canvas1-oval" class="stroke" stroke="rgb(0, 0, 0)" stroke-width="3" stroke-miterlimit="10" fill="none" cx="40.75" cy="85.75" r="4.75" />
	<ellipse id="canvas1-oval2" class="stroke" stroke="rgb(0, 0, 0)" stroke-width="3" stroke-miterlimit="10" fill="none" cx="54.75" cy="72.25" rx="8.75" ry="8.25" />
</svg>
