<?xml version="1.0"?>
<svg xmlns="http://www.w3.org/2000/svg" xmlns:xlink="http://www.w3.org/1999/xlink" width="34.5px" height="34.5px" viewBox="0 0 34.5 34.5" version="1.1">
	<path class="stroke" stroke="#000" stroke-width="1" fill="none" d="M0,14.61 C0,20.66 1.22,29.3 1.72,29.79 C2.22,30.28 9.47,31.5 15.52,31.5 C21.57,31.5 29.36,30.25 29.86,29.71 C30.31,29.22 31.5,20.66 31.5,14.61 C31.5,8.56 30.32,2.3 29.88,1.81 C29.38,1.26 21.57,0 15.52,0 C9.47,0 2.21,1.22 1.71,1.72 C1.22,2.22 0,8.56 0,14.61 Z" />
	<path class="stroke" stroke="#000" stroke-width="1" fill="none" d="M16.63,22.85 C16.63,23.18 16.51,23.48 16.27,23.75 C16.03,24.01 15.72,24.14 15.34,24.14 C14.95,24.14 14.64,24.01 14.4,23.75 C14.16,23.48 14.04,23.18 14.04,22.85 C14.04,22.51 14.16,22.21 14.4,21.95 C14.64,21.68 14.95,21.55 15.34,21.55 C15.72,21.55 16.03,21.68 16.27,21.95 C16.51,22.21 16.63,22.51 16.63,22.85 Z M16.2,19.39 L14.47,19.39 L14.47,7.01 L16.2,7.01 L16.2,19.39 Z" />
</svg>
