<?xml version="1.0" encoding="UTF-8"?>
<!DOCTYPE svg PUBLIC "-//W3C//DTD SVG 1.1//EN" "http://www.w3.org/Graphics/SVG/1.1/DTD/svg11.dtd">
<svg version="1.1" xmlns="http://www.w3.org/2000/svg" xmlns:xlink="http://www.w3.org/1999/xlink" width="240" height="120"  xml:space="preserve" id="canvas1">
	<!-- Generated by PaintCode - http://www.paintcodeapp.com -->
	<path id="canvas1-rectangle" class="stroke" stroke="rgb(0, 0, 0)" stroke-width="3" stroke-miterlimit="10" fill="none" d="M 29,40.61 C 29,46.66 30.22,55.3 30.72,55.79 31.22,56.28 38.47,57.5 44.52,57.5 50.57,57.5 58.36,56.25 58.86,55.71 59.31,55.22 60.5,46.66 60.5,40.61 60.5,34.56 59.32,28.3 58.88,27.81 58.38,27.26 50.57,26 44.52,26 38.47,26 31.21,27.22 30.71,27.72 30.22,28.22 29,34.56 29,40.61 Z M 29,40.61" />
	<path id="canvas1-text" class="stroke fill-in" stroke="rgb(0, 0, 0)" stroke-width="1" stroke-miterlimit="10" fill="rgb(0, 0, 0)" d="M 45.63,48.85 C 45.63,49.18 45.51,49.48 45.27,49.75 45.03,50.01 44.72,50.14 44.34,50.14 43.95,50.14 43.64,50.01 43.4,49.75 43.16,49.48 43.04,49.18 43.04,48.85 43.04,48.51 43.16,48.21 43.4,47.95 43.64,47.68 43.95,47.55 44.34,47.55 44.72,47.55 45.03,47.68 45.27,47.95 45.51,48.21 45.63,48.51 45.63,48.85 Z M 45.2,45.39 L 43.47,45.39 43.47,33.01 45.2,33.01 45.2,45.39 Z M 45.2,45.39" />
</svg>
